<?xml version="1.0" encoding="iso-8859-1"?>
<!-- Generator: Adobe Illustrator 19.0.0, SVG Export Plug-In . SVG Version: 6.00 Build 0)  -->
<svg version="1.1" id="Capa_1" xmlns="http://www.w3.org/2000/svg" xmlns:xlink="http://www.w3.org/1999/xlink" x="0px" y="0px"
	 viewBox="0 0 512.002 512.002" style="enable-background:new 0 0 512.002 512.002;" xml:space="preserve">
<g>
	<g>
		<path style="fill:#AE5F3D;" d="M123.117,10c-48.113,0-87.116,38.842-87.116,86.755c0,31.379,16.73,58.866,41.791,74.101
			c21.505-57.859,64.316-103.057,117.306-122.974C179.411,25.013,153.025,10,123.117,10z"/>
		<path style="fill:#AE5F3D;" d="M476.002,96.755c0-47.913-39.004-86.755-87.116-86.755c-29.909,0-56.294,15.013-71.982,37.881
			c52.989,19.917,95.802,65.114,117.307,122.975C459.272,155.62,476.002,128.134,476.002,96.755z"/>
	</g>
	<path style="fill:#C2744D;" d="M316.904,47.881c-19.147-7.196-39.623-11.093-60.903-11.093s-41.756,3.896-60.903,11.094
		c-52.989,19.917-95.801,65.114-117.306,122.974c-7.043,18.95-11.801,39.259-13.882,60.481
		c-16.862,23.372-26.443,50.165-26.443,78.645c0,54.77,35.434,103.294,89.952,133.26c1.855,1.02,3.733,2.019,5.632,2.995
		c-0.559-0.957,2.866,1.6,6.304,2.775c0.024,0.008,0.05,0.017,0.075,0.025c-14.076-16.953-16.22-29.611-16.22-38.004
		c0-31.732,58.505-131.381,130.674-131.381s130.673,99.066,130.673,131.381c0,11.962-5.718,28.109-19.121,41.203
		c25.109-0.537,109.101-89.989,109.101-142.255c0-28.479-9.581-55.273-26.444-78.645c-2.081-21.224-6.838-41.531-13.881-60.481
		C412.706,112.995,369.894,67.798,316.904,47.881z"/>
	<path style="fill:#838383;" d="M256.002,339.799c-20.233,0-36.636,10.955-36.636,24.468c0,13.48,16.324,24.415,36.491,24.467
		c0.048,0,0.096,0,0.145,0c20.232,0,36.635-10.954,36.635-24.467S276.234,339.799,256.002,339.799z"/>
	<path style="fill:#F0F0F0;" d="M255.857,388.733c-20.167-0.052-36.491-10.986-36.491-24.467c0-13.513,16.402-24.468,36.636-24.468
		c20.232,0,36.635,10.955,36.635,24.468s-16.402,24.467-36.635,24.467H255.857L255.857,388.733z M253.884,279.652
		c-72.169,0-130.674,99.648-130.674,131.381c0,8.389,2.142,21.038,16.198,37.978c0.008,0.008,0.015,0.017,0.021,0.025
		c27.441,31.3,82.782,52.965,114.454,52.965c0.74,0,1.494-0.012,2.261-0.036c30.672-0.972,81.583-21.232,109.291-49.729
		c13.403-13.094,19.121-29.241,19.121-41.203C384.557,378.719,326.053,279.652,253.884,279.652z"/>
</g>
<path d="M446.209,174.858c25.055-18.197,39.792-46.827,39.792-78.104C486.001,43.404,442.436,0,388.886,0
	c-29.509,0-57.228,13.348-75.602,36.042c-18.434-6.085-37.698-9.254-57.283-9.254s-38.85,3.169-57.283,9.254
	C180.346,13.348,152.627,0,123.117,0c-53.55,0-97.116,43.404-97.116,96.755c0,31.277,14.737,59.907,39.792,78.105
	c-5.672,16.919-9.582,34.641-11.56,52.837c-17.521,25.151-26.767,53.545-26.767,82.285c0,28.444,9.095,56.665,26.301,81.609
	c16.409,23.79,40.213,44.682,68.835,60.414c1.236,0.68,6.668,3.633,11.008,5.486c29.648,32.219,86.6,54.511,120.273,54.511
	c0.529,0,1.081-0.022,1.622-0.032c0.212,0.014,0.422,0.032,0.638,0.032c0.009,0,0.018,0,0.026,0c0.41-0.001,0.813-0.034,1.209-0.084
	c32.014-1.378,82.764-21.131,112.777-50.278c19.197-4.273,47.457-31.366,66.928-54.73c14.268-17.121,47.452-60.838,47.452-96.928
	c0-28.74-9.246-57.134-26.768-82.285C455.792,209.5,451.881,191.778,446.209,174.858z M388.886,20
	c42.521,0,77.115,34.433,77.115,76.755c0,22.95-10.015,44.11-27.269,58.585c-11.256-25.964-26.885-49.528-46.27-69.316
	c-17.659-18.023-37.777-32.222-59.412-42.196C347.496,28.735,367.603,20,388.886,20z M46.001,96.755
	C46.001,54.433,80.595,20,123.117,20c21.281,0,41.389,8.735,55.835,23.827c-21.636,9.976-41.753,24.174-59.412,42.197
	c-19.386,19.786-35.015,43.352-46.271,69.316C56.017,140.865,46.001,119.705,46.001,96.755z M147.047,442.55
	c-0.085-0.1-0.164-0.204-0.254-0.301c-12.166-14.802-13.583-24.893-13.583-31.216c0-13.118,13.768-44.091,36.011-71.255
	c15.329-18.721,46.712-50.126,84.663-50.126c38.017,0,69.367,31.275,84.671,49.918c22.237,27.089,36.002,58.187,36.002,71.463
	c0,8.853-4.232,22.447-16.109,34.051c-0.035,0.035-0.067,0.072-0.103,0.108c-0.025,0.025-0.054,0.047-0.079,0.073
	c-23.205,23.866-63.63,41.453-92.148,45.726l-0.236-93.007c21.25-3.265,36.756-16.903,36.756-33.718
	c0-19.328-20.484-34.468-46.635-34.468c-26.15,0-46.636,15.14-46.636,34.468c0,16.75,15.39,30.347,36.515,33.678l0.237,93.628
	C215.618,488.485,169.918,468.549,147.047,442.55z M256.002,378.733c-15.245,0-26.636-7.638-26.636-14.467
	s11.391-14.468,26.636-14.468c15.244,0,26.635,7.639,26.635,14.468S271.246,378.733,256.002,378.733z M421.72,394.105
	c-10.158,12.189-20.064,22.252-28.75,29.97c1.043-4.369,1.587-8.75,1.587-13.042c0-20.143-17.051-55.535-40.544-84.153
	c-17.545-21.372-53.884-57.228-100.129-57.228c-46.192,0-82.566,35.998-100.138,57.455c-23.488,28.685-40.536,63.98-40.536,83.926
	c0,4.237,0.493,8.448,1.487,12.65c-42.443-29.175-67.23-70.564-67.23-113.702c0-25.358,8.49-50.529,24.553-72.794
	c1.034-1.434,1.67-3.115,1.843-4.875c1.964-20.031,6.37-39.126,12.849-56.927c0.359-0.706,0.633-1.436,0.813-2.179
	c20.575-54.753,60.902-96.934,110.376-115.718c0.432-0.126,0.857-0.284,1.275-0.471c17.93-6.642,37.036-10.23,56.827-10.23
	c19.788,0,38.894,3.588,56.821,10.229c0.422,0.188,0.852,0.348,1.287,0.475c49.471,18.786,89.797,60.967,110.371,115.719
	c0.179,0.741,0.451,1.468,0.81,2.172c6.479,17.802,10.886,36.898,12.85,56.931c0.173,1.76,0.809,3.441,1.843,4.875
	c16.064,22.264,24.554,47.436,24.554,72.794C464.536,330.485,448.53,361.934,421.72,394.105z"/>
<path d="M134.967,137.152c1.849,1.489,4.066,2.214,6.269,2.214c2.921,0,5.816-1.274,7.792-3.727l0.169-0.208
	c0-0.001,0.06-0.074,0.061-0.075c3.476-4.291,2.784-10.551-1.507-14.027c-4.293-3.476-10.617-2.778-14.094,1.513l-0.201,0.249
	C129.989,127.392,130.666,133.686,134.967,137.152z"/>
<path d="M230.404,63.951c-27.324,4.691-52.356,16.717-74.402,35.743c-4.182,3.608-4.645,9.923-1.037,14.104
	c1.977,2.291,4.768,3.466,7.575,3.466c2.313,0,4.64-0.799,6.528-2.43c19.255-16.617,41.03-27.105,64.721-31.173
	c5.442-0.934,9.098-6.104,8.163-11.547C241.018,66.672,235.849,63.012,230.404,63.951z"/>
<path d="M186.001,205.953c-11.016,0-20,8.984-20,20s8.984,20,20,20c11.017,0,20.001-8.984,20.001-20
	C206.002,214.938,197.018,205.953,186.001,205.953z"/>
<path d="M326.002,205.953c-11.017,0-20.001,8.984-20.001,20s8.984,20,20.001,20c11.016,0,20-8.984,20-20
	C346.002,214.938,337.018,205.953,326.002,205.953z"/>
<path d="M435.511,279.464c-9.165-4.772-17.455-7.852-26.343-9.691l0.836-6.895c0.62-5.117-2.751-9.867-7.785-10.971
	c-21.545-4.725-41.727-1.86-56.823,8.072c-4.614,3.035-5.893,9.236-2.858,13.85c3.036,4.613,9.235,5.895,13.851,2.858
	c8.438-5.552,19.993-7.857,32.603-6.656l-0.841,6.94c-0.323,2.661,0.437,5.341,2.107,7.436c1.671,2.097,4.113,3.434,6.779,3.713
	c10.483,1.096,18.954,3.727,29.236,9.082c1.477,0.768,3.055,1.132,4.61,1.132c3.609,0,7.096-1.96,8.878-5.383
	C442.311,288.054,440.409,282.015,435.511,279.464z"/>
<path d="M166.607,259.979c-15.097-9.933-35.28-12.8-56.823-8.072c-5.034,1.104-8.405,5.854-7.785,10.971l0.836,6.895
	c-8.888,1.84-17.178,4.919-26.343,9.691c-4.898,2.551-6.801,8.59-4.25,13.488c1.782,3.423,5.268,5.383,8.878,5.383
	c1.556,0,3.135-0.364,4.61-1.132c10.282-5.355,18.753-7.986,29.236-9.082c2.666-0.279,5.108-1.616,6.779-3.713
	c1.671-2.096,2.431-4.775,2.107-7.436l-0.841-6.94c12.604-1.203,24.165,1.104,32.603,6.656c4.613,3.036,10.814,1.754,13.851-2.858
	C172.5,269.216,171.221,263.015,166.607,259.979z"/>
<g>
</g>
<g>
</g>
<g>
</g>
<g>
</g>
<g>
</g>
<g>
</g>
<g>
</g>
<g>
</g>
<g>
</g>
<g>
</g>
<g>
</g>
<g>
</g>
<g>
</g>
<g>
</g>
<g>
</g>
</svg>
