<?xml version="1.0" encoding="iso-8859-1"?>
<!-- Generator: Adobe Illustrator 19.0.0, SVG Export Plug-In . SVG Version: 6.00 Build 0)  -->
<svg version="1.1" id="Capa_1" xmlns="http://www.w3.org/2000/svg" xmlns:xlink="http://www.w3.org/1999/xlink" x="0px" y="0px"
	 viewBox="0 0 512.001 512.001" style="enable-background:new 0 0 512.001 512.001;" xml:space="preserve">
<g>
	<g>
		<path style="fill:#F0F0F0;" d="M380.771,392.81c68.854,15.685,103.184-67.108,87.641-59.591
			c-43.41,20.995-82.255,28.614-124.413-40.668c-12.177,9.512-25.371,16.534-39.144,20.144
			C316.183,351.6,346.794,385.07,380.771,392.81z"/>
		<path style="fill:#F0F0F0;" d="M136.03,390.562c37.987-8.654,70.939-39.266,71.91-76.871c-0.029-1.458-0.041-2.916-0.032-4.373
			c-11.976-4.293-23.491-11.388-34.159-20.591c-42.523,70.96-81.623,63.395-125.357,42.244
			C32.849,323.454,67.179,406.247,136.03,390.562z"/>
	</g>
	<path style="fill:#A7A7A7;" d="M326.596,491.838c35.23,16.914,61.466-21.346,40.054-42.22
		c-37.128-36.196-63.799-54.566-61.795-136.924c24.939-6.539,47.691-24.166,65.685-47.766c-0.003-0.001-0.005-0.003-0.007-0.004
		c49.313-64.679,62.882-174.213-12.273-223.268c-2.545-1.661-5.143-3.252-7.805-4.77c-22.313-12.725-49.228-20.291-88.616-20.291
		c-40.925,0-72.311,8.14-95.661,21.728l-1.42,0.837c-77.638,46.562-64.232,154.435-17.301,220.334
		c6.885,9.667,14.492,18.431,22.638,25.966c1.207,1.116,2.426,2.205,3.655,3.267c10.668,9.204,22.184,16.298,34.159,20.591
		c0.06,1.468,0.069,2.926,0.032,4.374C209.4,385.695,256.99,458.421,326.596,491.838z"/>
	<g>
		<path style="fill:#838383;" d="M166.177,38.324C-37.043-90.947-40.521,390.068,147.456,259.495
			c-46.932-65.898-60.337-173.772,17.301-220.334C165.227,38.879,165.7,38.6,166.177,38.324z"/>
		<path style="fill:#838383;" d="M350.454,36.887c2.335,1.333,4.633,2.727,6.898,4.183c0.303,0.194,0.605,0.39,0.906,0.587
			C355.714,39.996,353.116,38.405,350.454,36.887L350.454,36.887z M370.539,264.928c-0.003-0.001-0.005-0.003-0.007-0.004
			c49.313-64.679,62.882-174.213-12.273-223.268c-2.545-1.661-5.142-3.253-7.804-4.771
			C548.24-85.168,549.788,375.528,370.539,264.928z"/>
	</g>
</g>
<path d="M242.018,52.119c-0.718-5.476-5.741-9.332-11.215-8.615c-20.958,2.747-38.852,8.499-53.187,17.096
	c-5.814,3.486-11.124,7.503-15.781,11.938c-4,3.808-4.155,10.138-0.347,14.138c1.965,2.064,4.602,3.104,7.244,3.104
	c2.477,0,4.958-0.915,6.894-2.758c3.593-3.421,7.723-6.54,12.276-9.27c11.97-7.178,27.278-12.029,45.5-14.418
	C238.878,62.616,242.735,57.595,242.018,52.119z"/>
<path d="M156.215,94.291c-5.059-2.221-10.957,0.08-13.176,5.136l-0.147,0.335c-2.202,5.065,0.118,10.956,5.183,13.158
	c1.299,0.565,2.651,0.832,3.982,0.832c3.86,0,7.538-2.249,9.175-6.015l0.119-0.27C163.572,102.41,161.272,96.511,156.215,94.291z"/>
<path d="M470.161,322.734c-2.018,0-4.071,0.499-6.104,1.481c-14.018,6.78-30.478,13.711-46.258,13.711
	c-14.001,0-35.219-4.696-60.813-43.554c5.837-5.241,11.413-11.049,16.67-17.341c19.624,11.045,36.528,15.215,50.854,15.216
	c25.455,0.002,42.781-13.139,52.832-24.159c22.07-24.195,35.023-66.505,34.651-113.181c-0.377-47.343-13.717-90.111-36.599-117.336
	c-18.368-21.857-58.727-51.543-126.417-12.824c-24.536-12.477-52.13-18.152-87.14-18.152c-37.828,0-69.847,6.795-95.363,20.172
	C96.703-14.976,55.285,15.346,36.606,37.572C13.725,64.797,0.385,107.565,0.008,154.908c-0.372,46.676,12.582,88.986,34.651,113.181
	c10.052,11.02,27.377,24.161,52.832,24.159c15.941-0.001,35.075-5.164,57.598-19.221c4.939,6.239,10.216,12.081,15.79,17.456
	c-16.715,25.895-33.582,40.361-51.414,44.123c-18.721,3.949-38.324-3.739-56.721-12.636c-6.411-3.1-11.781-0.887-14.67,2.218
	c-5.628,6.051-4.24,16.48,4.126,30.998c13.454,23.347,40.668,47.343,76.815,47.34c6.159,0,12.582-0.697,19.235-2.213
	c21.764-4.958,41.805-16.354,56.433-32.087c3.397-3.654,6.421-7.503,9.105-11.491c5.588,22.053,15.097,43.673,28.279,64.026
	c22.621,34.927,53.811,62.623,90.2,80.093c7.167,3.441,14.434,5.185,21.6,5.185c16.792,0,31.625-9.789,37.788-24.939
	c5.536-13.611,2.462-28.418-8.025-38.642c-2.939-2.866-5.814-5.622-8.616-8.306c-23.664-22.681-40.468-38.792-47.113-73.749
	c2.872,3.808,5.914,7.454,9.125,10.877c15.248,16.258,33.064,27.075,51.524,31.28c6.5,1.481,13.019,2.232,19.373,2.232
	c29.175,0,49.84-15.19,62.038-27.934c12.831-13.404,22.143-30.688,22.143-41.097c0-2.872-0.674-5.406-2.003-7.533
	C477.952,324.788,474.235,322.734,470.161,322.734z M460.084,50.439c41.443,49.31,42.789,159.983,2.482,204.172
	c-22.95,25.16-52.303,19.306-76.801,6.22c16.072-24.04,27.822-53.009,32.811-83.737c4.605-28.37,2.785-55.917-5.266-79.664
	c-8.496-25.061-23.429-45.402-44.408-60.569C406.171,18.962,437.449,23.509,460.084,50.439z M49.435,254.611
	C9.128,210.422,10.474,99.749,51.917,50.439c23.481-27.938,56.263-31.792,95.388-11.482c-27.042,20.801-43.224,50.948-47.06,88.031
	c-4.424,42.764,8.653,91.23,33.227,129.698C107.709,272.428,74.693,282.303,49.435,254.611z M133.809,380.812
	c-19.437,4.427-37.427,0.428-53.467-11.889c-8.845-6.792-15.261-14.768-19.463-21.502c16.467,6.439,34.504,10.594,52.716,6.753
	c22.723-4.794,43.296-21.41,62.673-50.68c7.015,5.114,14.213,9.307,21.542,12.545C195.442,349.23,164.086,373.915,133.809,380.812z
	 M351.176,448.591c2.761,2.646,5.595,5.362,8.493,8.188c6.648,6.482,4.635,13.898,3.46,16.785
	c-2.341,5.755-8.79,12.475-19.262,12.475c-4.146,0-8.5-1.081-12.943-3.215c-65.708-31.545-111.688-100.835-112.985-169.554
	c0.022-1.219,0.008-2.44-0.03-3.662c0.001-0.077-0.001-0.154-0.001-0.231c0-0.035-0.003-0.069-0.003-0.104
	c-0.004-0.119,0-0.238-0.005-0.357c-0.001-0.042-0.009-0.082-0.011-0.124c-0.013-0.251-0.036-0.5-0.068-0.746
	c-0.008-0.063-0.012-0.127-0.021-0.189c-0.043-0.294-0.1-0.583-0.168-0.868c-0.026-0.109-0.059-0.215-0.088-0.324
	c-0.048-0.173-0.098-0.345-0.154-0.515c-0.045-0.135-0.093-0.268-0.144-0.399c-0.052-0.135-0.107-0.268-0.165-0.401
	c-0.061-0.142-0.121-0.283-0.188-0.421c-0.052-0.106-0.111-0.209-0.166-0.313c-0.152-0.285-0.316-0.561-0.494-0.828
	c-0.053-0.08-0.103-0.161-0.158-0.239c-0.105-0.149-0.217-0.293-0.33-0.436c-0.061-0.076-0.121-0.152-0.184-0.227
	c-0.121-0.144-0.244-0.285-0.372-0.421c-0.053-0.057-0.108-0.111-0.163-0.166c-0.672-0.683-1.439-1.267-2.281-1.734
	c-0.017-0.009-0.034-0.019-0.052-0.029c-0.481-0.263-0.983-0.488-1.507-0.669c-10.383-3.738-20.625-9.912-30.507-18.376
	c-0.217-0.208-0.446-0.405-0.685-0.594c-1.04-0.903-2.077-1.824-3.109-2.778c-38.165-35.298-62.03-97.992-56.745-149.073
	c2.589-25.031,13.324-59.454,49.757-81.307c0.004-0.003,0.009-0.005,0.013-0.007c23.389-14.025,54.318-21.136,91.929-21.136
	c38.073,0,66.125,7.228,90.955,23.435c38.011,24.81,54.793,69.955,46.042,123.858c-4.815,29.66-17.115,59.075-34.635,82.825
	c-16.623,22.535-36.963,38.392-57.691,45.083c-0.158,0.051-0.317,0.097-0.476,0.147c-0.527,0.166-1.055,0.331-1.583,0.486
	c-0.71,0.208-1.421,0.406-2.132,0.593c-0.303,0.08-0.598,0.175-0.888,0.281c-0.088,0.032-0.172,0.069-0.258,0.103
	c-0.205,0.081-0.407,0.167-0.604,0.26c-0.092,0.044-0.183,0.09-0.273,0.136c-0.192,0.099-0.381,0.203-0.565,0.313
	c-0.08,0.049-0.162,0.096-0.242,0.146c-0.215,0.137-0.424,0.283-0.627,0.435c-0.041,0.03-0.084,0.058-0.124,0.089
	c-0.241,0.186-0.473,0.384-0.695,0.592c-0.058,0.054-0.111,0.112-0.168,0.167c-0.161,0.157-0.317,0.319-0.468,0.486
	c-0.07,0.079-0.138,0.159-0.205,0.24c-0.135,0.16-0.264,0.325-0.388,0.493c-0.06,0.081-0.12,0.16-0.177,0.242
	c-0.152,0.22-0.295,0.445-0.43,0.677c-0.017,0.028-0.036,0.054-0.052,0.082c-0.003,0.005-0.005,0.01-0.008,0.015
	c-0.152,0.27-0.29,0.548-0.417,0.832c-0.031,0.068-0.057,0.138-0.086,0.207c-0.091,0.216-0.176,0.436-0.251,0.659
	c-0.03,0.089-0.059,0.179-0.086,0.268c-0.066,0.212-0.124,0.426-0.175,0.644c-0.022,0.088-0.044,0.175-0.063,0.264
	c-0.05,0.243-0.09,0.489-0.123,0.737c-0.008,0.06-0.02,0.119-0.026,0.179c-0.033,0.291-0.056,0.585-0.063,0.882
	c-0.001,0.024-0.001,0.047-0.001,0.072c0,0.002,0,0.004,0,0.006c-0.886,36.745,3.809,63.994,14.775,85.748
	C319.871,418.588,334.378,432.492,351.176,448.591z M445.207,363.346c-9.465,9.783-25.351,21.444-47.284,21.444
	c-4.862,0-9.886-0.583-14.932-1.732c-27.223-6.202-53.107-31.868-65.428-63.943c8.032-3.031,15.953-7.131,23.691-12.265
	c23.246,34.786,47.753,51.075,76.545,51.075c13.273,0,26.221-3.562,38.148-8.248C453.308,353.898,449.762,358.639,445.207,363.346z"
	/>
<path d="M281.027,283.512c-13.238-6.178-34.174-6.042-45.718,0.296c-4.841,2.658-6.611,8.737-3.953,13.578s8.736,6.612,13.578,3.953
	c5.417-2.975,19.793-3.364,27.634,0.296c1.368,0.639,2.807,0.941,4.223,0.941c3.765,0,7.371-2.137,9.068-5.773
	C288.195,291.799,286.031,285.848,281.027,283.512z"/>
<path d="M295.045,259.891c1.408,0.685,2.898,1.009,4.365,1.008c3.707,0,7.271-2.071,9-5.63c2.415-4.967,0.346-10.951-4.621-13.366
	c-25.81-12.546-68.262-13.081-90.847-1.142c-4.882,2.581-6.749,8.631-4.167,13.514c2.582,4.883,8.634,6.748,13.514,4.168
	C239.16,249.525,275.198,250.243,295.045,259.891z"/>
<path d="M228.296,167.469c0-11.087-9.02-20.108-20.108-20.108s-20.108,9.021-20.108,20.108s9.02,20.108,20.108,20.108
	S228.296,178.556,228.296,167.469z"/>
<path d="M312.269,187.576c11.088,0,20.108-9.021,20.108-20.108s-9.021-20.108-20.108-20.108s-20.108,9.021-20.108,20.108
	C292.16,178.556,301.181,187.576,312.269,187.576z"/>
<g>
</g>
<g>
</g>
<g>
</g>
<g>
</g>
<g>
</g>
<g>
</g>
<g>
</g>
<g>
</g>
<g>
</g>
<g>
</g>
<g>
</g>
<g>
</g>
<g>
</g>
<g>
</g>
<g>
</g>
</svg>
