<?xml version="1.0" encoding="iso-8859-1"?>
<!-- Generator: Adobe Illustrator 19.0.0, SVG Export Plug-In . SVG Version: 6.00 Build 0)  -->
<svg version="1.1" id="Capa_1" xmlns="http://www.w3.org/2000/svg" xmlns:xlink="http://www.w3.org/1999/xlink" x="0px" y="0px"
	 viewBox="0 0 512.003 512.003" style="enable-background:new 0 0 512.003 512.003;" xml:space="preserve">
<g>
	<g>
		<path style="fill:#A7A7A7;" d="M335.057,43.023C311.98,31.609,285.99,25.194,258.5,25.194c-23.921,0-46.708,4.858-67.428,13.643
			c-41.219,17.472-74.256,50.479-91.766,91.678c-8.828,20.76-13.711,43.602-13.711,67.584c0,15.03,1.921,29.607,5.525,43.51
			c22.287-13.08,51.341-22.504,82.182-28.39c6.347-8.619,16.539-14.208,28.03-14.208c8.316,0,15.952,2.927,21.941,7.813
			c21.306-1.41,43.974-1.358,65.302,0.122c6.014-4.959,13.707-7.935,22.094-7.935c11.602,0,21.879,5.695,28.209,14.456
			c33.168,6.288,63.276,16.398,86.451,30.196c3.955-14.519,6.078-29.792,6.078-45.564c0-20.452-3.551-40.075-10.07-58.286
			C406.179,97.474,374.978,62.769,335.057,43.023z"/>
		<path style="fill:#A7A7A7;" d="M425.329,243.664c-23.175-13.797-53.283-23.908-86.449-30.197
			c4.172,5.77,6.631,12.868,6.631,20.545c0,19.33-15.599,35-34.842,35c-19.242,0-34.842-15.67-34.842-35
			c0-10.905,4.965-20.646,12.748-27.064c-21.328-1.48-43.996-1.532-65.301-0.124c7.87,6.417,12.9,16.212,12.9,27.189
			c0,19.33-15.6,35-34.843,35s-34.842-15.67-34.842-35c0-7.786,2.531-14.979,6.811-20.792c-30.841,5.885-59.894,15.31-82.182,28.39
			c-35.664,15.413-60.787,50.979-60.787,92.134v0.006c0,51.2,43.542,114.283,89.582,104.029c3.563-0.794,7.139-2.026,10.711-3.736
			c89.277-42.744,172.61-40.836,250.75,0c3.027,1.582,6.064,2.795,9.098,3.666c45.959,13.19,91.195-52.213,91.195-103.959v-0.006
			C481.669,294.323,458.618,260.026,425.329,243.664z"/>
		<path style="fill:#A7A7A7;" d="M381.376,434.043c-78.14-40.836-161.473-42.744-250.75,0c-3.572,1.71-7.148,2.942-10.711,3.736
			c15.084,36.868,70.51,64.223,136.639,64.223s118.881-27.392,133.92-64.293C387.439,436.838,384.404,435.625,381.376,434.043z"/>
	</g>
	<g>
		<path style="fill:#838383;" d="M236.175,234.012c0-10.976-5.03-20.771-12.9-27.189c-5.99-4.884-13.626-7.811-21.942-7.811
			c-11.491,0-21.684,5.588-28.03,14.208c-4.28,5.813-6.811,13.006-6.811,20.792c0,19.33,15.599,35,34.842,35
			C220.575,269.012,236.175,253.342,236.175,234.012z"/>
		<path style="fill:#838383;" d="M345.511,234.012c0-7.677-2.459-14.775-6.631-20.545c-6.332-8.76-16.609-14.455-28.211-14.455
			c-8.387,0-16.08,2.976-22.094,7.935c-7.783,6.419-12.748,16.159-12.748,27.064c0,19.33,15.6,35,34.842,35
			C329.912,269.012,345.511,253.342,345.511,234.012z"/>
		<path style="fill:#838383;" d="M191.071,38.838C179.144,21.432,159.037,10,136.239,10c-36.607,0-66.283,29.477-66.283,65.838
			c0,22.78,11.648,42.856,29.35,54.677C116.815,89.316,149.853,56.31,191.071,38.838z"/>
		<path style="fill:#838383;" d="M453.919,83.114c0-36.362-29.676-65.838-66.285-65.838c-21.418,0-40.459,10.092-52.577,25.748
			c39.921,19.745,71.122,54.451,86.28,96.79C440.839,128.352,453.919,107.252,453.919,83.114z"/>
	</g>
</g>
<path d="M474.412,274.677c-9.505-14.891-22.368-27.258-37.505-36.132c2.989-13.235,4.501-26.805,4.501-40.445
	c0-18.858-2.871-37.059-8.195-54.189c19.115-14.215,30.707-36.832,30.707-60.797c0-41.817-34.221-75.838-76.285-75.838
	c-21.155,0-40.875,8.49-55.232,23.531c-22.612-10.027-47.616-15.612-73.902-15.612c-22.538,0-44.132,4.108-64.086,11.598
	C179.99,9.891,158.787,0,136.239,0C94.177,0,59.956,34.021,59.956,75.838c0,22.585,10.065,43.76,27.265,58.101
	c-7.507,19.975-11.626,41.595-11.626,64.161c0,12.796,1.328,25.53,3.952,37.963c-36.23,19.013-59.214,56.493-59.214,97.688
	c0,25.183,9.665,53.669,25.853,76.202c17.776,24.743,40.995,38.934,63.701,38.934c1.401,0,2.797-0.072,4.19-0.177
	c20.604,37.616,77.575,63.293,142.477,63.293c64.281,0,118.939-24.994,139.595-62.971c2.147,0.261,4.308,0.397,6.48,0.397
	c47.953-0.001,89.04-63.608,89.04-115.684C491.669,312.789,485.701,292.364,474.412,274.677z M387.634,27.275
	c31.036,0,56.285,25.049,56.285,55.838c0,15.669-6.753,30.561-18.147,41.033c-15.544-35.021-41.77-64.282-74.523-83.632
	C361.315,32.009,374.069,27.275,387.634,27.275z M421.408,198.1c0,10.26-0.98,20.468-2.879,30.493
	c-20.64-10.327-45.938-18.605-74.169-24.231c-8.225-9.399-20.274-15.35-33.689-15.35c-9.297,0-17.941,2.855-25.11,7.735
	c-19.542-1.202-39.867-1.239-59.282-0.109c-7.137-4.813-15.719-7.626-24.945-7.626c-13.296,0-25.252,5.842-33.471,15.097
	c-26.593,5.332-50.375,12.997-69.765,22.456c-1.649-9.363-2.502-18.891-2.502-28.464c0-89.826,73.079-162.905,162.904-162.905
	C348.327,35.194,421.408,108.273,421.408,198.1z M310.671,209.011c13.698,0,24.842,11.215,24.842,25.001
	c0,13.785-11.144,25-24.842,25s-24.843-11.215-24.843-25C285.827,220.227,296.972,209.011,310.671,209.011z M201.333,209.011
	c13.698,0,24.842,11.215,24.842,25.001c0,13.785-11.144,25-24.842,25s-24.843-11.215-24.843-25
	C176.49,220.227,187.635,209.011,201.333,209.011z M79.956,75.838c0-30.79,25.248-55.838,56.283-55.838
	c14.591,0,28.404,5.618,38.766,15.392c-33.942,17.488-61.739,45.288-79.223,79.232C85.735,104.312,79.956,90.481,79.956,75.838z
	 M256.554,492.002c-54.298,0-103.292-19.942-122.354-48.607c0.248-0.114,0.498-0.214,0.745-0.333
	c42.085-20.149,83.739-30.366,123.804-30.366c39.889,0,79.539,10.139,117.85,30.134C358.05,472.192,310.71,492.002,256.554,492.002z
	 M402.628,429.428c-5.635,0-11.228-1.429-16.621-4.248c-41.245-21.555-84.061-32.483-127.26-32.483
	c-43.078,0-87.637,10.876-132.44,32.327c-5.352,2.563-10.877,3.862-16.42,3.862c-16.188,0-33.486-11.154-47.458-30.603
	c-13.836-19.258-22.096-43.382-22.096-64.539c0-36.019,21.492-68.581,54.754-82.955c0.346-0.149,0.675-0.322,0.995-0.505
	c0.033-0.018,0.067-0.031,0.1-0.05c16.082-9.438,36.883-17.358,60.857-23.242c-0.358,2.288-0.549,4.632-0.549,7.02
	c0,24.813,20.116,45,44.843,45c24.726,0,44.842-20.187,44.842-45c0-6.413-1.352-12.511-3.772-18.037
	c9.017-0.233,18.127-0.214,27.17,0.057c-2.403,5.511-3.746,11.59-3.746,17.98c0,24.813,20.116,45,44.843,45
	c24.726,0,44.842-20.187,44.842-45c0-2.326-0.177-4.61-0.518-6.841c25.596,6.217,47.897,14.772,65.219,25.085
	c0.028,0.017,0.058,0.027,0.086,0.044c0.202,0.118,0.406,0.234,0.618,0.338c30.83,15.154,50.751,46.99,50.751,81.112
	C471.669,375.526,438.189,429.427,402.628,429.428z"/>
<path d="M216.001,132.502c-11.016,0-20,8.984-20,20s8.984,20,20,20s20-8.984,20-20S227.017,132.502,216.001,132.502z"/>
<path d="M296.001,172.502c11.016,0,20-8.984,20-20s-8.984-20-20-20s-20,8.984-20,20S284.985,172.502,296.001,172.502z"/>
<path d="M97.251,337.442c-5.508,0-10,4.492-10,10s4.492,10,10,10s10-4.492,10-10C107.251,341.935,102.759,337.442,97.251,337.442z"
	/>
<path d="M128.251,292.002c-5.508,0-10,4.492-10,10s4.492,10,10,10c5.508,0,10.001-4.492,10.001-10
	C138.252,296.494,133.759,292.002,128.251,292.002z"/>
<path d="M151.241,338.1c-5.509,0-10,4.492-10,10c0,5.507,4.491,10,10,10c5.508,0,10-4.493,10-10
	C161.241,342.591,156.749,338.1,151.241,338.1z"/>
<path d="M414.751,337.442c-5.508,0-10,4.492-10,10s4.492,10,10,10s10-4.492,10-10C424.751,341.935,420.259,337.442,414.751,337.442z
	"/>
<path d="M383.751,292.002c-5.508,0-10,4.492-10,10s4.492,10,10,10s10-4.492,10-10C393.751,296.494,389.259,292.002,383.751,292.002z
	"/>
<path d="M360.762,338.1c-5.508,0-10,4.492-10,10c0,5.507,4.492,10,10,10s10-4.493,10-10C370.762,342.591,366.27,338.1,360.762,338.1
	z"/>
<path d="M177.362,96.597c2.041,0,4.1-0.623,5.876-1.915c16.042-11.675,34.87-19.553,54.449-22.782
	c5.449-0.899,9.138-6.045,8.239-11.494s-6.043-9.135-11.494-8.239c-22.64,3.734-44.413,12.844-62.963,26.345
	c-4.465,3.25-5.451,9.504-2.201,13.97C171.226,95.17,174.272,96.597,177.362,96.597z"/>
<path d="M148.82,114.002c1.895,1.664,4.244,2.48,6.586,2.48c2.783,0,5.554-1.152,7.535-3.401c0.02-0.022,0.102-0.117,0.122-0.139
	c3.602-4.164,3.128-10.42-1.019-14.04c-4.148-3.619-10.473-3.17-14.111,0.96c-0.005,0.006-0.041,0.047-0.046,0.053
	C144.248,104.065,144.675,110.359,148.82,114.002z"/>
<g>
</g>
<g>
</g>
<g>
</g>
<g>
</g>
<g>
</g>
<g>
</g>
<g>
</g>
<g>
</g>
<g>
</g>
<g>
</g>
<g>
</g>
<g>
</g>
<g>
</g>
<g>
</g>
<g>
</g>
</svg>
