<?xml version="1.0" encoding="iso-8859-1"?>
<!-- Generator: Adobe Illustrator 19.0.0, SVG Export Plug-In . SVG Version: 6.00 Build 0)  -->
<svg version="1.1" id="Capa_1" xmlns="http://www.w3.org/2000/svg" xmlns:xlink="http://www.w3.org/1999/xlink" x="0px" y="0px"
	 viewBox="0 0 512 512" style="enable-background:new 0 0 512 512;" xml:space="preserve">
<g>
	<g>
		<path style="fill:#FF8346;" d="M412.493,237.258c0-13.778-0.518-26.267-1.49-37.569c-75.833-62.162-153.26,29.155-88.776,81.868
			c30.596,25.011,27.686,70.981,26.892,78.299C386.447,338.549,411.707,290.446,412.493,237.258z"/>
		<path style="fill:#FF8346;" d="M189.663,281.557c64.481-52.712-12.944-144.029-88.778-81.868
			c-0.972,11.302-1.488,23.792-1.488,37.569c0.785,53.187,26.045,101.291,63.374,122.599
			C161.977,352.538,159.067,306.568,189.663,281.557z"/>
	</g>
	<g>
		<path style="fill:#FFBA4C;" d="M324.547,402.866l-68.604-24.096l-68.603,24.096c17.92,13.035,43.333,18.808,68.603,17.513
			C281.213,421.673,306.627,415.901,324.547,402.866z"/>
		<path style="fill:#FFBA4C;" d="M349.117,359.856c0.794-7.318,3.704-53.288-26.892-78.299
			c-64.483-52.712,12.943-144.029,88.776-81.868c-8.294-96.435-49.716-106.508-85.75-94.136
			c-25.933,8.904-38.39,32.87-69.309,33.188c-30.919-0.318-43.376-24.284-69.308-33.188c-36.034-12.373-77.456-2.299-85.751,94.136
			c75.834-62.162,153.26,29.155,88.778,81.868c-30.597,25.011-27.687,70.981-26.893,78.299c1.452,18.685,10.798,32.992,24.57,43.01
			l68.603-24.096l68.604,24.096C338.32,392.848,347.665,378.541,349.117,359.856z"/>
	</g>
	<path style="fill:#AE5F3D;" d="M403.073,438.291c23.701-17.527,52.177-168.638,45.51-195.556l49.428,32.636
		c3.232,2.133,4.111,1.124,3.969-2.482c-1.176-29.856-23.6-186.139-134.847-202.816l62.488-21.049
		c-24.717-26.888-95.671-69.36-173.678-5.88c-78.006-63.48-148.961-21.008-173.677,5.88l62.487,21.049
		C36.124,86.359,12.188,235.76,10.026,270.576c-0.293,4.727,1.892,6.09,5.314,3.829l47.964-31.669
		c-6.668,26.918,21.809,178.029,45.509,195.556c11.543-6.874,24.65-51.656,24.65-51.656
		c15.83,51.607,86.033,108.179,122.479,115.362c36.447-7.184,106.65-63.754,122.481-115.362
		C378.424,386.635,391.781,433.292,403.073,438.291L403.073,438.291z M324.547,402.866c-17.92,13.035-43.333,18.808-68.604,17.513
		c-25.27,1.295-50.683-4.478-68.603-17.513c-13.773-10.018-23.118-24.325-24.57-43.01c-37.33-21.308-62.589-69.41-63.374-122.599
		c0-13.778,0.517-26.267,1.488-37.569c8.295-96.435,49.717-106.508,85.751-94.136c25.933,8.904,38.39,32.87,69.308,33.188
		c30.92-0.318,43.376-24.284,69.309-33.188c36.034-12.373,77.456-2.299,85.75,94.136c0.973,11.302,1.49,23.792,1.49,37.569
		c-0.785,53.187-26.046,101.291-63.375,122.599C347.665,378.541,338.32,392.848,324.547,402.866z"/>
</g>
<path d="M511.972,272.495c-0.582-14.782-6.564-63.354-26.979-109.968c-11.622-26.538-26.094-48.426-43.012-65.058
	c-12.476-12.263-26.279-21.672-41.269-28.155l32.102-10.814c3.208-1.08,5.651-3.711,6.493-6.99c0.842-3.279-0.032-6.761-2.323-9.254
	C418.207,21.83,383.004,0.004,340.52,0.004c-29.172,0-57.591,10.24-84.576,30.454C228.959,10.243,200.54,0.004,171.369,0.004
	c-42.486,0-77.687,21.827-96.464,42.254c-2.291,2.493-3.165,5.975-2.323,9.254c0.842,3.279,3.285,5.91,6.493,6.99l32.103,10.814
	C96.725,75.566,83.373,84.537,71.257,96.16c-16.786,16.104-31.22,37.329-42.898,63.085C8.751,202.485,1.336,249.182,0.046,269.957
	c-0.304,4.892,0.916,8.834,3.625,11.715c2.304,2.45,5.443,3.799,8.841,3.798c2.801,0,5.607-0.916,8.34-2.721l31.654-20.9
	c0.998,22.627,6.237,55.459,12.387,84.273c8.338,39.07,21.695,88.169,37.978,100.209c3.238,2.397,7.601,2.614,11.063,0.552
	c4.705-2.802,11.304-9.086,20.698-32.971c13.462,23.667,33.204,43.386,45.685,54.523c25.594,22.838,53.831,39.457,73.694,43.371
	c0.639,0.126,1.286,0.189,1.934,0.189c0.648,0,1.295-0.063,1.934-0.189c19.863-3.915,48.101-20.534,73.695-43.371
	c12.449-11.108,32.12-30.753,45.578-54.335c0.012,0.031,0.024,0.062,0.036,0.092c9.688,25.061,16.476,30.867,21.837,33.241
	c3.287,1.456,7.104,1.035,9.994-1.104c16.282-12.04,29.64-61.139,37.978-100.209c6.149-28.814,11.389-61.645,12.388-84.272
	l33.121,21.868c1.796,1.185,4.59,2.762,8.095,2.762c3.066-0.001,5.914-1.206,8.018-3.394
	C512.242,279.313,512.044,274.359,511.972,272.495z M454.092,234.391c-3.436-2.269-7.915-2.2-11.279,0.178
	c-3.364,2.376-4.928,6.573-3.938,10.572c2.383,9.617-1.314,49.363-11.439,96.808c-8.724,40.874-17.914,67.838-24.7,80.546
	c-4.577-8.603-10.411-23.652-14.699-38.614c-1.22-4.256-5.094-7.204-9.52-7.245c-0.031,0-0.063,0-0.094,0
	c-4.389,0-8.27,2.864-9.56,7.066c-14.64,47.724-79.565,99.974-112.921,108.058c-33.355-8.085-98.28-60.334-112.919-108.058
	c-1.289-4.202-5.17-7.066-9.561-7.066c-0.021,0-0.042,0-0.063,0c-4.417,0.028-8.292,2.95-9.534,7.189
	c-4.337,14.796-10.199,29.631-14.876,38.372c-6.771-12.829-15.886-39.694-24.541-80.249c-10.126-47.444-13.822-87.191-11.44-96.808
	c0.991-3.998-0.572-8.195-3.937-10.572c-3.364-2.378-7.843-2.447-11.279-0.177l-36.547,24.13
	c2.836-22.356,10.228-57.725,25.323-91.017c23.439-51.688,56.971-81.142,99.666-87.542c4.568-0.685,8.072-4.409,8.479-9.01
	c0.406-4.601-2.392-8.882-6.769-10.356l-46.461-15.65c16.734-13.083,41.606-24.944,69.882-24.944
	c26.739,0,53.07,10.395,78.264,30.898c3.675,2.99,8.946,2.992,12.623,0c25.194-20.503,51.525-30.898,78.265-30.898
	c28.276,0,53.146,11.862,69.881,24.944l-46.46,15.65c-4.377,1.474-7.175,5.755-6.769,10.356c0.406,4.601,3.91,8.325,8.478,9.01
	c43.568,6.531,77.558,37.01,101.023,90.588c14.594,33.323,21.325,67.485,23.945,87.958L454.092,234.391z"/>
<path d="M420.896,198.314c-2.794-31.612-9.249-56.388-19.299-73.915c-12.407-21.64-30.767-33.079-53.093-33.079
	c-8.355,0-17.27,1.606-26.498,4.775c-11.835,4.063-20.776,10.577-29.423,16.875c-11.476,8.359-21.391,15.582-36.641,15.771
	c-15.249-0.189-25.164-7.411-36.639-15.77c-8.647-6.299-17.589-12.813-29.424-16.876c-9.229-3.169-18.144-4.775-26.498-4.775
	c-22.325,0-40.685,11.439-53.092,33.081c-10.048,17.525-16.503,42.294-19.298,73.893c-0.055,0.387-0.09,0.775-0.099,1.166
	c-0.995,11.685-1.5,24.284-1.5,37.797c0,0.049,0,0.099,0.001,0.148c0.804,54.348,25.761,104.113,64.002,128.47
	c2.728,18.05,12.165,33.321,27.552,44.679c0.272,0.227,0.559,0.435,0.853,0.63c1.311,0.943,2.651,1.867,4.047,2.753
	c16.879,10.716,39.31,16.618,63.159,16.617c2.301,0,4.631-0.056,6.935-0.165c2.307,0.11,4.637,0.165,6.936,0.165
	c23.85,0,46.279-5.902,63.158-16.619c1.387-0.88,2.718-1.799,4.023-2.735c0.31-0.204,0.609-0.423,0.895-0.661
	c15.377-11.358,24.809-26.623,27.535-44.664c38.243-24.358,63.199-74.123,64.002-128.472c0.001-0.049,0.001-0.098,0.001-0.147
	c0-13.527-0.506-26.138-1.502-37.833C420.981,199.053,420.947,198.683,420.896,198.314z M109.395,237.184
	c0.001-10.575,0.322-21.521,1.12-32.346c27.396-20.761,50.12-16.967,61.467-12.684c16.54,6.245,28.483,20.328,31.171,36.753
	c2.671,16.328-4.367,32.277-19.819,44.907c-23.036,18.831-29.305,47.226-30.686,66.561
	C126.545,317.542,110.033,279.055,109.395,237.184z M262.877,410.556c-2.128,0-4.289-0.055-6.423-0.164
	c-0.17-0.009-0.341-0.013-0.512-0.013c-0.171,0-0.342,0.004-0.512,0.013c-2.131,0.109-4.292,0.164-6.424,0.164
	c-12.496,0-25.177-1.925-36.526-5.922l43.462-15.267l43.459,15.266C288.053,408.63,275.373,410.556,262.877,410.556z
	 M322.595,391.583l-56.651-19.9v-61.928c9.247-1.912,17.747-6.466,24.58-13.297c3.905-3.905,3.906-10.236,0.001-14.142
	c-3.903-3.905-10.236-3.905-14.142-0.001c-5.461,5.459-12.72,8.466-20.439,8.466c-7.72,0-14.979-3.006-20.439-8.466
	c-3.904-3.905-10.237-3.905-14.142,0c-3.905,3.905-3.905,10.237,0.001,14.142c6.832,6.832,15.332,11.386,24.579,13.298v61.928
	l-56.653,19.9c-9.274-8.076-15.487-18.832-16.55-32.502c-0.004-0.046-0.015-0.09-0.019-0.136c-0.006-0.054-0.004-0.107-0.01-0.161
	c-0.205-1.893-4.711-46.603,23.28-69.485c20.912-17.095,30.716-40.285,26.898-63.621c-3.838-23.458-20.638-43.472-43.844-52.233
	c-20.783-7.846-43.859-5.615-65.607,5.879c6.059-37.429,20.132-68.004,49.945-68.004c6.14,0,12.869,1.242,20.004,3.692
	c8.986,3.085,16.348,8.448,24.142,14.126c10.468,7.625,22.109,16.101,38.415,18.761v23.82c0,5.523,4.478,10,10,10
	c5.523,0,10-4.477,10-10v-23.82c16.307-2.66,27.949-11.136,38.416-18.761c7.794-5.677,15.155-11.04,24.142-14.125
	c7.135-2.45,13.864-3.692,20.004-3.692c29.814,0,43.888,30.576,49.945,68.004c-21.749-11.494-44.826-13.725-65.608-5.88
	c-23.206,8.761-40.007,28.776-43.843,52.233c-3.817,23.337,5.987,46.525,26.899,63.621c27.995,22.886,23.484,67.592,23.278,69.484
	c-0.006,0.059-0.005,0.117-0.01,0.176c-0.004,0.041-0.015,0.081-0.018,0.122C338.085,372.751,331.872,383.507,322.595,391.583z
	 M359.24,340.377c-1.38-19.335-7.647-47.728-30.686-66.561c-15.452-12.631-22.491-28.581-19.82-44.908
	c2.688-16.425,14.631-30.508,31.171-36.753c11.345-4.282,34.069-8.077,61.467,12.685c0.798,10.824,1.118,21.77,1.12,32.345
	C401.856,279.055,385.343,317.541,359.24,340.377z"/>
<path d="M337.935,216.431c-8.262,0-15,6.738-15,15c0,8.262,6.738,15,15,15c8.262,0,15-6.738,15-15
	C352.934,223.169,346.196,216.431,337.935,216.431z"/>
<path d="M173.952,246.431c8.263,0,15-6.738,15-15c0-8.262-6.737-15-15-15c-8.262,0-15,6.738-15,15
	C158.953,239.693,165.691,246.431,173.952,246.431z"/>
<path d="M255.944,191.44c-5.522,0-10,4.477-10,10v0.324c0,5.523,4.478,10,10,10c5.523,0,10-4.477,10-10v-0.324
	C265.943,195.917,261.465,191.44,255.944,191.44z"/>
<g>
</g>
<g>
</g>
<g>
</g>
<g>
</g>
<g>
</g>
<g>
</g>
<g>
</g>
<g>
</g>
<g>
</g>
<g>
</g>
<g>
</g>
<g>
</g>
<g>
</g>
<g>
</g>
<g>
</g>
</svg>
