<?xml version="1.0" encoding="iso-8859-1"?>
<!-- Generator: Adobe Illustrator 19.0.0, SVG Export Plug-In . SVG Version: 6.00 Build 0)  -->
<svg version="1.1" id="Capa_1" xmlns="http://www.w3.org/2000/svg" xmlns:xlink="http://www.w3.org/1999/xlink" x="0px" y="0px"
	 viewBox="0 0 512.002 512.002" style="enable-background:new 0 0 512.002 512.002;" xml:space="preserve">
<g>
	<path style="fill:#E0AC91;" d="M65.231,266.425C52.891,272.169,45,284.546,45,298.157c0,19.33,15.67,35,35,35
		c0.982,0,1.964-0.042,2.942-0.124c2.858-10.931,6.919-19.418,11.417-27.284C81.77,293.442,72.147,280.202,65.231,266.425z"/>
	<path style="fill:#C2744D;" d="M53.842,233.256C28.057,243.602,10,268.787,10,298.157c0,38.073,30.805,69.295,68.722,69.983
		c0.171-14.328,1.745-25.635,4.221-35.108c-0.979,0.083-1.96,0.124-2.942,0.124c-19.33,0-35-15.67-35-35
		c0-13.611,7.891-25.988,20.231-31.732C59.814,255.634,56.059,244.514,53.842,233.256z"/>
	<path style="fill:#E0AC91;" d="M444.154,265.334c-6.951,14.169-16.749,27.783-29.67,40.416c4.438,7.762,8.452,16.128,11.303,26.852
		c2.051,0.37,4.131,0.556,6.215,0.556c19.329,0,35-15.67,35-35C467.001,283.514,457.886,270.419,444.154,265.334z"/>
	<path style="fill:#C2744D;" d="M178.277,127.144c46.199,0,49.203,52.715,76.145,52.715c26.939,0,29.943-52.715,76.144-52.715
		c29.113,0,52.714,23.602,52.714,52.715c-3.734,80.289,16.177,99.619,31.204,125.891c12.921-12.632,22.719-26.247,29.671-40.415
		c5.302-10.807,8.948-21.936,11.063-33.197c17.885-95.264-73.916-199.942-200.795-198.696c0,0-66.143,3.19-125.003-23.44
		c0,0-8.698,30.462,10.64,54.398l-1.037,0.635c-62.006,38.258-97.553,105.389-85.18,168.222
		c2.217,11.258,5.972,22.378,11.389,33.169c6.916,13.776,16.539,27.017,29.129,39.324c15.027-26.272,34.938-45.602,31.203-125.891
		C125.563,150.745,149.164,127.144,178.277,127.144z"/>
	<path style="fill:#E0AC91;" d="M125.563,179.859c3.734,80.289-16.176,99.619-31.203,125.891
		c-4.498,7.865-8.559,16.353-11.417,27.284c-2.476,9.472-4.05,20.779-4.221,35.108c-0.011,0.867-0.016,1.745-0.016,2.634
		c0,80.982,85.136,131.228,175.716,131.228c90.578,0,175.715-50.246,175.715-131.228c0-0.884-0.006-1.756-0.016-2.618
		c-0.174-14.555-1.793-25.992-4.335-35.556c-2.851-10.723-6.864-19.09-11.304-26.852c-15.026-26.272-34.938-45.602-31.203-125.891
		c0-29.113-23.601-52.715-52.714-52.715c-46.2,0-49.204,52.715-76.144,52.715c-26.941,0-29.945-52.715-76.145-52.715
		C149.164,127.144,125.563,150.745,125.563,179.859z"/>
	<path style="fill:#C2744D;" d="M444.154,265.334c13.732,5.085,22.848,18.18,22.848,32.823c0,19.33-15.671,35-35,35
		c-2.084,0-4.164-0.186-6.215-0.556c2.542,9.564,4.161,21.001,4.335,35.556h1.88c38.5,0,70-31.5,70-70
		c0-30.142-19.927-56.216-46.784-66.02C453.103,243.398,449.456,254.527,444.154,265.334z"/>
</g>
<path d="M281.835,333.182l-11.436,3.064c-5.335,1.429-8.5,6.913-7.071,12.247c1.197,4.468,5.237,7.414,9.653,7.414
	c0.856,0,1.728-0.111,2.594-0.343l11.436-3.064c5.335-1.429,8.5-6.913,7.071-12.247S287.171,331.751,281.835,333.182z"/>
<path d="M221.833,352.501l11.435,3.064c0.867,0.232,1.738,0.343,2.595,0.343c4.415,0,8.456-2.947,9.653-7.414
	c1.429-5.335-1.736-10.818-7.071-12.248l-11.434-3.064c-5.335-1.431-10.818,1.736-12.248,7.071
	C213.333,345.588,216.498,351.071,221.833,352.501z"/>
<path d="M380.063,358.25c-33.56,33.56-78.18,52.042-125.641,52.042c-47.462,0-92.082-18.482-125.642-52.042
	c-3.905-3.905-10.236-3.905-14.142,0c-3.905,3.905-3.905,10.237,0,14.142c18.45,18.45,40.027,32.868,64.133,42.853
	s49.559,15.048,75.651,15.048s51.544-5.063,75.65-15.048c24.106-9.985,45.683-24.403,64.133-42.853
	c3.905-3.905,3.905-10.237,0-14.142C390.299,354.345,383.968,354.345,380.063,358.25z"/>
<path d="M512.001,298.157c0-30.711-18.073-58.754-45.72-72.163c3.246-25.446-0.513-52.108-11.033-77.559
	c-14.482-35.036-41.309-66.633-75.541-88.971c-36.795-24.01-80.161-36.431-125.383-36.023c-0.128,0.002-0.256,0.005-0.384,0.011
	c-0.636,0.031-64.382,2.781-120.399-22.563c-2.648-1.198-5.687-1.185-8.326,0.038c-2.638,1.222-4.613,3.532-5.412,6.328
	c-0.335,1.173-7.914,28.65,6.3,54.245c-47.1,31.875-78.213,80.004-83.805,130.348c-1.335,12.02-1.145,23.908,0.486,35.516
	C16.555,241.054,0,268.031,0,298.157c0,40.051,30.125,73.718,68.896,79.193c2.088,38.449,22.485,72.915,57.99,97.615
	c34.33,23.883,79.624,37.037,127.536,37.037s93.205-13.153,127.535-37.037c35.378-24.612,55.759-58.92,57.97-97.204
	C480.332,373.769,512.001,339.595,512.001,298.157z M457.001,298.157c0,13.328-10.483,24.251-23.637,24.961
	c-1.935-5.781-4.178-10.91-6.587-15.653c8.401-8.941,15.525-18.411,21.354-28.369C453.626,283.768,457.001,290.703,457.001,298.157z
	 M62.176,194.056c4.993-44.945,33.329-88.129,76.241-116.737c10.149,9.56,23.77,16.477,40.708,20.641
	c5.361,1.315,10.779-1.96,12.098-7.324c1.318-5.363-1.96-10.779-7.324-12.098c-19.119-4.7-32.515-13.398-39.816-25.852
	c-5.797-9.89-6.839-20.621-6.553-28.467c55.709,21.422,112.586,19.421,117.168,19.219c0.689-0.006,1.362-0.009,2.048-0.009
	c92.164,0,156.759,56.375,180.018,112.646c10.312,24.947,13.113,49.982,8.759,73.604c-0.1,0.395-0.169,0.793-0.22,1.189
	c-4.088,20.97-13.855,40.794-29.077,58.418c-12.937-20.976-26.007-43.415-22.958-108.963c0.007-0.155,0.011-0.31,0.011-0.464
	c0-34.581-28.133-62.715-62.714-62.715c-31.293,0-46.298,20.662-57.254,35.749c-7.639,10.519-12.639,16.966-18.889,16.966
	c-6.251,0-11.251-6.447-18.891-16.967c-10.957-15.086-25.962-35.748-57.254-35.748c-34.581,0-62.715,28.134-62.715,62.715
	c0,0.155,0.004,0.31,0.011,0.465c3.05,65.566-10.028,88.001-22.969,108.981c-7.333-8.467-13.407-17.423-18.183-26.79
	c-0.044-0.103-0.078-0.207-0.126-0.309c-0.144-0.309-0.302-0.606-0.472-0.893c-4.653-9.377-8.02-19.157-10.065-29.26
	c-0.064-0.523-0.158-1.045-0.308-1.564C61.236,218.729,60.789,206.544,62.176,194.056z M61.925,280.918
	c5.611,9.322,12.337,18.21,20.142,26.547c-2.36,4.645-4.559,9.66-6.467,15.296C63.907,320.676,55,310.44,55,298.157
	C55,291.644,57.574,285.495,61.925,280.918z M20,298.157c0-20.69,10.406-39.4,27.259-50.287c1.483,4.963,3.246,9.85,5.28,14.653
	C41.659,270.937,35,284.085,35,298.157c0,21.669,15.397,39.807,35.823,44.057c-0.747,4.59-1.315,9.548-1.674,14.929
	C41.297,351.973,20,327.321,20,298.157z M370.535,458.548c-30.561,21.261-72.882,33.455-116.113,33.455
	c-43.232,0-85.554-12.193-116.115-33.455c-22.628-15.742-49.601-43.748-49.601-87.773c0-0.817,0.01-1.61,0.019-2.406
	c0.001-0.017,0.003-0.032,0.003-0.048c0-0.024-0.002-0.047-0.002-0.072c0.419-35.25,9.599-50.139,20.195-67.302
	c14.057-22.768,29.988-48.565,26.642-121.308c0.119-23.453,19.234-42.496,42.714-42.496c21.099,0,30.8,13.358,41.071,27.501
	c9.003,12.396,18.312,25.214,35.074,25.214c16.761,0,26.069-12.818,35.072-25.214c10.271-14.143,19.972-27.501,41.072-27.501
	c23.479,0,42.595,19.043,42.713,42.496c-3.345,72.742,12.586,98.539,26.643,121.307c10.58,17.136,19.747,32.003,20.194,67.133
	c0,0.026-0.004,0.051-0.004,0.077c0,0.036,0.005,0.07,0.005,0.106c0.01,0.83,0.02,1.658,0.02,2.511
	C420.137,414.799,393.163,442.806,370.535,458.548z M439.727,357.643c-0.343-5.369-0.89-10.327-1.619-14.912
	c21.934-2.99,38.894-21.833,38.894-44.574c0-15.105-7.677-29.053-19.86-37.301c1.919-4.719,3.563-9.535,4.953-14.437
	c18.247,10.81,29.907,30.43,29.907,51.738C492.001,328.622,469.172,353.839,439.727,357.643z"/>
<path d="M222.49,280.001c0-11.087-9.02-20.108-20.108-20.108s-20.108,9.021-20.108,20.108c0,11.088,9.02,20.108,20.108,20.108
	S222.49,291.089,222.49,280.001z"/>
<path d="M326.569,280.001c0-11.087-9.021-20.108-20.108-20.108s-20.108,9.021-20.108,20.108c0,11.088,9.021,20.108,20.108,20.108
	S326.569,291.089,326.569,280.001z"/>
<path d="M185.535,216.554c11.952,0,21.609,4.761,31.833,9.802c11.039,5.442,22.455,11.07,37.054,11.07
	c14.598,0,26.012-5.627,37.051-11.07c10.225-5.041,19.882-9.802,31.835-9.802c5.523,0,10-4.477,10-10s-4.477-10-10-10
	c-16.615,0-29.399,6.303-40.678,11.864c-9.805,4.834-18.272,9.008-28.208,9.008c-9.937,0-18.405-4.175-28.21-9.009
	c-11.279-5.561-24.063-11.863-40.677-11.863c-5.523,0-10,4.477-10,10C175.535,212.076,180.012,216.554,185.535,216.554z"/>
<circle cx="210.17" cy="92.171" r="10"/>
<g>
</g>
<g>
</g>
<g>
</g>
<g>
</g>
<g>
</g>
<g>
</g>
<g>
</g>
<g>
</g>
<g>
</g>
<g>
</g>
<g>
</g>
<g>
</g>
<g>
</g>
<g>
</g>
<g>
</g>
</svg>
