<?xml version="1.0" encoding="iso-8859-1"?>
<!-- Generator: Adobe Illustrator 19.0.0, SVG Export Plug-In . SVG Version: 6.00 Build 0)  -->
<svg version="1.1" id="Capa_1" xmlns="http://www.w3.org/2000/svg" xmlns:xlink="http://www.w3.org/1999/xlink" x="0px" y="0px"
	 viewBox="0 0 512 512" style="enable-background:new 0 0 512 512;" xml:space="preserve">
<g>
	<path style="fill:#FFA6A1;" d="M163.026,110.21c0-45.251-76.725-77.533-153.026-59.156
		c25.434,58.728,13.903,136.62,108.064,129.728C127.533,150.878,143.381,127.415,163.026,110.21z"/>
	<path style="fill:#FFDDDD;" d="M377.889,124.65c-8.786-9.387-18.518-17.486-28.915-24.278
		c-57.186-37.355-134.559-35.164-185.947,9.838c-7.798,6.829-14.997,14.643-21.436,23.455c-9.785,13.39-17.815,29.082-23.526,47.117
		c-11.406,36.021-13.557,81.389-1.939,136.42c-223.646,216.683,531.865,206.623,300.248,0c13.592-59.748,8.34-108.934-8.534-147.046
		C400.078,152.628,389.861,137.444,377.889,124.65L377.889,124.65z M224.195,298.359h86.877c33.84,0,49.64,27.982,49.64,62.175
		c0,34.194-27.689,62.175-61.526,62.175h-63.104c-33.838,0-61.527-27.979-61.527-62.175
		C174.555,326.337,190.355,298.359,224.195,298.359z"/>
	<g>
		<path style="fill:#FFA6A1;" d="M407.839,170.156C502,177.048,476.566,99.943,502,41.216
			c-76.302-18.377-153.026,13.904-153.026,59.156c10.397,6.792,20.129,14.892,28.915,24.278
			C389.861,137.444,400.078,152.628,407.839,170.156z"/>
		<path style="fill:#FFA6A1;" d="M360.712,360.534c0-34.193-15.8-62.175-49.64-62.175h-86.877c-33.84,0-49.641,27.979-49.641,62.175
			c0,34.195,27.689,62.175,61.527,62.175h63.104C333.023,422.709,360.712,394.728,360.712,360.534z"/>
	</g>
</g>
<path d="M165.701,182.152c2.091-5.111-0.357-10.95-5.469-13.042c-5.083-2.078-10.89,0.332-13.009,5.39
	c-0.031,0.073-0.078,0.185-0.102,0.245c-2.071,5.12,0.4,10.949,5.52,13.02c1.229,0.497,2.498,0.732,3.747,0.732
	c3.92,0,7.635-2.321,9.232-6.152C165.645,182.285,165.681,182.198,165.701,182.152z"/>
<path d="M164.869,161.307c1.803,1.359,3.916,2.015,6.012,2.015c3.032,0,6.027-1.373,7.993-3.981
	c14.239-18.888,34.184-31.688,57.679-37.017c5.386-1.222,8.762-6.578,7.541-11.964c-1.221-5.386-6.577-8.756-11.964-7.541
	c-28.167,6.388-52.105,21.77-69.227,44.482C159.579,151.712,160.459,157.982,164.869,161.307z"/>
<path d="M311.072,288.359h-86.877c-36.23,0-59.64,28.331-59.64,72.175c0,39.797,32.086,72.175,71.526,72.175h63.104
	c39.439,0,71.525-32.378,71.525-72.175C370.711,316.689,347.301,288.359,311.072,288.359z M299.185,412.709h-63.104
	c-28.412,0-51.526-23.405-51.526-52.175c0-12.24,2.858-52.175,39.64-52.175h86.877c36.78,0,39.639,39.935,39.639,52.175
	C350.711,389.303,327.597,412.709,299.185,412.709z"/>
<path d="M510.948,36.75c-1.318-2.641-3.736-4.565-6.607-5.256c-51.109-12.311-107.338-3.339-139.917,22.325
	c-11.399,8.979-19.114,19.357-22.85,30.573c-2.693-1.434-5.43-2.808-8.219-4.108c-22.514-10.495-47.514-16.042-72.298-16.042
	c-33.492,0-65.189,9.961-91.316,28.111c-3.947-10.495-11.406-20.22-22.164-28.695c-32.58-25.663-88.81-34.636-139.918-22.325
	c-2.87,0.691-5.288,2.615-6.607,5.256c-1.318,2.642-1.402,5.73-0.229,8.44C6.8,68.83,10.745,84.199,14.56,99.061
	c6.308,24.573,12.266,47.783,26.786,65.383c14.432,17.493,35.264,26.277,63.39,26.716c-7.672,31.633-9.529,71.944,0.508,122.735
	c-36.258,36.542-48.611,69.938-36.713,99.32c9.591,23.686,35.369,42.963,74.547,55.75c33.578,10.958,76.713,16.995,121.458,16.998
	c0.014,0,0.021,0,0.035,0c46.15,0,90.95-6.342,126.139-17.858c40.886-13.38,67.381-33.261,76.62-57.495
	c5.698-14.946,4.875-31.077-2.448-47.944c-6.799-15.661-19.405-32.115-37.505-48.967c7.911-37.632,8.851-72.882,2.786-104.855
	c-1.863-9.824-4.375-19.275-7.512-28.337c25.63-0.708,44.027-8.696,55.939-24.263c12.401-16.206,16.043-37.767,19.898-60.593
	c2.881-17.056,5.859-34.692,12.689-50.46C512.349,42.481,512.266,39.392,510.948,36.75z M56.773,151.717
	C45.09,137.554,39.67,116.441,33.932,94.088c-3.026-11.788-6.13-23.879-10.311-35.66c47.894-8.413,89.945,3.899,111.578,20.94
	c7.304,5.754,15.864,14.854,17.532,26.707c-3.538,3.3-6.924,6.784-10.154,10.434c-11.156-14.883-26.813-25.966-46.01-32.385
	c-5.238-1.749-10.903,1.075-12.655,6.313c-1.751,5.238,1.075,10.903,6.313,12.655c17.451,5.835,30.714,15.93,39.535,30.025
	c-7.01,10.461-13.673,23.047-19.046,38.03C77.696,172.099,64.155,160.665,56.773,151.717z M448.641,403.486
	c-7.016,18.4-29.199,34.173-64.153,45.611c-33.237,10.877-75.823,16.867-119.919,16.867c-0.011,0-0.022,0-0.033,0
	c-42.694-0.003-83.626-5.689-115.254-16.011c-33.394-10.898-54.907-26.197-62.214-44.243c-8.961-22.128,3.157-49.49,36.017-81.326
	c2.469-2.392,3.536-5.884,2.826-9.247c-11.959-56.648-8.427-99.145,1.391-130.545c0.219-0.529,0.398-1.077,0.524-1.645
	c5.862-18.112,13.811-32.456,22.021-43.638c0.005-0.007,0.011-0.014,0.016-0.021c1.333-1.814,2.671-3.549,4.009-5.199
	c25.688-31.678,64.756-49.846,107.185-49.846c29.554,0,57.736,8.446,81.659,23.923c0.523,0.42,1.09,0.786,1.691,1.096
	c12.652,8.433,24.073,18.858,33.819,31.07c7.089,8.883,14.208,19.882,20.221,33.242c0.152,0.418,0.334,0.821,0.539,1.212
	c14.159,32.156,21.84,77.758,7.636,140.198c-0.807,3.549,0.378,7.257,3.094,9.681C433.197,345.611,459.01,376.289,448.641,403.486z
	 M478.767,92.319c-7.08,41.922-11.851,70.108-64.372,68.183c-5.663-11.691-12.516-22.596-20.537-32.646
	c-1.549-1.941-3.146-3.829-4.767-5.689c6.628-18.207,23.804-31.291,38.026-36.047c5.238-1.751,8.064-7.417,6.313-12.655
	s-7.416-8.062-12.655-6.313c-17.098,5.716-36.339,19.716-46.774,39.754c-4.646-4.125-9.519-7.975-14.601-11.554
	c1.959-11.422,10.278-20.212,17.4-25.822c21.653-17.057,63.753-29.375,111.704-20.917C483.705,63.082,481.203,77.895,478.767,92.319
	z"/>
<path d="M195.245,224.575c0,11.153,9.021,20.226,20.108,20.226s20.108-9.073,20.108-20.226c0-11.152-9.021-20.226-20.108-20.226
	C204.266,204.349,195.245,213.422,195.245,224.575z"/>
<path d="M319.913,244.801c11.088,0,20.109-9.073,20.109-20.226c0-11.152-9.021-20.226-20.109-20.226
	c-11.087,0-20.108,9.073-20.108,20.226S308.826,244.801,319.913,244.801z"/>
<path d="M236.49,345.481c-5.523,0-10,4.477-10,10v10.105c0,5.523,4.477,10,10,10s10-4.477,10-10v-10.105
	C246.49,349.958,242.013,345.481,236.49,345.481z"/>
<path d="M298.776,345.481c-5.523,0-10,4.477-10,10v10.105c0,5.523,4.477,10,10,10s10-4.477,10-10v-10.105
	C308.776,349.958,304.299,345.481,298.776,345.481z"/>
<g>
</g>
<g>
</g>
<g>
</g>
<g>
</g>
<g>
</g>
<g>
</g>
<g>
</g>
<g>
</g>
<g>
</g>
<g>
</g>
<g>
</g>
<g>
</g>
<g>
</g>
<g>
</g>
<g>
</g>
</svg>
