<?xml version="1.0" encoding="iso-8859-1"?>
<!-- Generator: Adobe Illustrator 19.0.0, SVG Export Plug-In . SVG Version: 6.00 Build 0)  -->
<svg version="1.1" id="Capa_1" xmlns="http://www.w3.org/2000/svg" xmlns:xlink="http://www.w3.org/1999/xlink" x="0px" y="0px"
	 viewBox="0 0 511.999 511.999" style="enable-background:new 0 0 511.999 511.999;" xml:space="preserve">
<g>
	<path style="fill:#C2744D;" d="M206.214,181.507C203.473,121.089,115.657-4.604,75.706,13.776
		C12.154,43.01,100,221.311,149.07,239.308c5.223-8.136,10.906-15.878,16.992-23.066c-44.853-39.435-81.406-133.952-65.344-140.126
		c22.46-8.632,80.582,90.16,84.986,120.187C192.243,190.664,199.097,185.685,206.214,181.507z"/>
	<g>
		<path style="fill:#FFA6A1;" d="M185.705,196.303c-4.404-30.027-62.526-128.82-84.986-120.187
			c-16.062,6.174,20.49,100.69,65.344,140.126C172.219,208.97,178.785,202.268,185.705,196.303z"/>
		<path style="fill:#FFA6A1;" d="M407.576,72.172c-22.459-8.632-79.015,92.182-83.418,122.209
			c6.721,5.576,13.122,11.849,19.152,18.669C388.163,173.615,423.638,78.346,407.576,72.172z"/>
	</g>
	<g>
		<path style="fill:#FFDDDD;" d="M430.838,10.584C390.888-7.795,304.586,118.8,301.845,179.218
			c7.751,4.158,15.209,9.27,22.313,15.163c4.403-30.027,60.959-130.842,83.418-122.209c16.063,6.174-19.413,101.442-64.266,140.878
			c6.542,7.4,12.647,15.444,18.247,23.939C410.626,218.992,494.39,39.819,430.838,10.584z"/>
		<path style="fill:#FFDDDD;" d="M301.845,179.218c-14.384-7.714-29.777-12.138-45.779-12.138c-17.522,0-34.316,5.305-49.854,14.427
			c-7.117,4.178-13.97,9.157-20.509,14.796c-6.92,5.965-13.486,12.667-19.643,19.938c-6.086,7.189-11.77,14.931-16.992,23.067
			c-14.028,21.849-24.737,46.522-31.006,70.856c-3.634,14.108-5.775,28.102-6.206,41.364c-0.054,1.656-0.081,3.299-0.081,4.932
			c0,35.978,13.17,68.883,34.951,94.154c0,0,37.195-122.326,108.821-123.127c72.661-0.813,107.565,125.719,107.565,125.719
			c23.145-25.592,37.24-59.523,37.24-96.746c0-1.633-0.027-3.275-0.081-4.932c-0.431-13.263-2.571-27.256-6.206-41.364
			c-6.49-25.199-17.743-50.763-32.512-73.175c-5.601-8.495-11.705-16.54-18.247-23.939c-6.03-6.82-12.432-13.093-19.152-18.669
			C317.054,188.489,309.596,183.376,301.845,179.218z"/>
	</g>
	<path style="fill:#C2744D;" d="M363.115,453.206c0,0-34.904-126.531-107.565-125.719
		c-71.626,0.801-108.821,123.127-108.821,123.127c2.444,2.836,4.997,5.576,7.652,8.212c26.083,25.91,62.015,41.921,101.685,41.921
		C298.532,500.748,336.712,482.403,363.115,453.206L363.115,453.206z M255.519,365.888c12.086,0,21.885,4.9,21.885,10.942
		c0,5.988-9.618,17.296-21.55,17.505c-0.111,0.002-0.223,0.004-0.335,0.004c-12.086,0-21.885-11.466-21.885-17.509
		C233.636,370.788,243.433,365.888,255.519,365.888z"/>
	<path style="fill:#FFA6A1;" d="M255.519,365.888c-12.086,0-21.885,4.9-21.885,10.942c0,6.043,9.798,17.509,21.885,17.509
		c0.112,0,0.224-0.002,0.335-0.004c11.931-0.209,21.55-11.517,21.55-17.505C277.404,370.788,267.606,365.888,255.519,365.888z"/>
	<path style="fill:#F0F0F0;" d="M255.854,415.732c0,8.866-11.528,14.048-22.352,13.636v31.166h45.795v-31.227
		C268.174,430.126,255.854,424.897,255.854,415.732z"/>
</g>
<path d="M299.985,414.558c-4.634-3.005-10.824-1.686-13.83,2.946c-1.208,1.86-5.562,3.557-11.242,3.049
	c-5.566-0.503-8.796-2.813-9.126-3.569v-13.289c12.216-4.476,21.55-16.054,21.55-25.612c0-12.133-13.408-20.94-31.883-20.94
	c-18.476,0-31.885,8.807-31.885,20.94c0,9.732,9.676,21.558,22.22,25.847v13.01c-0.411,0.858-3.627,3.117-9.126,3.614
	c-5.68,0.507-10.034-1.189-11.242-3.049c-3.005-4.633-9.196-5.954-13.83-2.946c-4.634,3.006-5.952,9.197-2.946,13.83
	c3.47,5.349,8.803,8.787,14.794,10.617v22.78c0,5.522,4.477,9.999,9.999,9.999h45.795c5.522,0,9.999-4.478,9.999-9.999v-23.147
	c5.543-1.905,10.445-5.232,13.701-10.25C305.936,423.756,304.618,417.564,299.985,414.558z M255.452,377.141
	c5.224,0,8.935,1.145,10.935,2.114c-1.894,2.592-6.125,6.337-10.935,6.337s-9.042-3.745-10.937-6.337
	C246.516,378.285,250.228,377.141,255.452,377.141z M243.434,451.786v-12.075c1.029-0.217,2.043-0.466,3.028-0.758
	c3.534-1.046,6.659-2.531,9.323-4.351c2.665,1.819,5.79,3.305,9.323,4.351c1.33,0.394,2.716,0.696,4.121,0.954v11.879H243.434z"/>
<path d="M220.947,271.993c-8.26,0-14.998,6.738-14.998,14.999c0,8.261,6.738,14.999,14.998,14.999
	c8.261,0,14.999-6.738,14.999-14.999C235.946,278.732,229.208,271.993,220.947,271.993z"/>
<path d="M291.05,271.993c-8.261,0-14.999,6.738-14.999,14.999c0,8.261,6.738,14.999,14.999,14.999
	c8.261,0,14.999-6.738,14.999-14.999C306.049,278.732,299.311,271.993,291.05,271.993z"/>
<path d="M37.772,357.707l-0.356,0.287c-4.272,3.5-4.898,9.8-1.398,14.071c1.978,2.414,4.848,3.663,7.741,3.663
	c2.229,0,4.473-0.742,6.331-2.265l0.13-0.104c4.323-3.438,5.041-9.728,1.604-14.05C48.386,354.99,42.097,354.27,37.772,357.707z"/>
<path d="M445.181,343.395c-11.512-3.041-23.794-3.769-35.756-2.357c-0.694-6.992-1.81-14.137-3.311-21.355
	c8.462-0.833,17.227-0.658,25.976,0.649c5.456,0.82,10.551-2.948,11.367-8.41c0.817-5.462-2.948-10.551-8.41-11.367
	c-11.385-1.703-22.852-1.805-33.889-0.43c-5.961-19.931-14.653-39.848-25.506-58.083c23.564-15.708,44.454-51.352,53.101-67.522
	c20.564-38.459,33.578-79.915,34.812-110.895c1.542-38.724-14.711-54.475-28.617-60.873c-11.082-5.099-24.218-3.107-39.036,5.92
	c-41.37,25.202-91.927,104.619-102.282,156.963c-12.307-4.814-24.926-7.302-37.631-7.302c-14.144,0-28.183,3.088-41.804,9.033
	c-4.541-22.467-16.598-50.364-34.381-79.046c-21.482-34.649-47.127-63.144-68.599-76.224C96.049,2.854,82.673,0.787,71.459,5.943
	c-13.576,6.246-29.449,21.469-27.973,58.52c1.225,30.76,14.847,72.47,36.436,111.574c17.848,32.324,37.693,56.788,55.048,68.355
	c-10.211,17.591-18.427,36.654-24.132,55.731c-11.037-1.374-22.503-1.273-33.888,0.431c-5.463,0.816-9.228,5.906-8.41,11.367
	c0.816,5.462,5.908,9.225,11.367,8.41c8.749-1.309,17.514-1.484,25.975-0.651c-1.501,7.219-2.615,14.364-3.311,21.357
	c-11.961-1.413-24.244-0.685-35.756,2.357c-5.34,1.41-8.524,6.883-7.114,12.221c1.411,5.341,6.885,8.525,12.221,7.114
	c9.622-2.541,19.903-3.042,29.829-1.681c0.845,40.152,16.929,77.727,45.513,106.123c29.098,28.907,67.714,44.827,108.734,44.827
	c44.891,0,85.359-19.276,113.58-49.98c0.643-0.557,1.214-1.185,1.692-1.877c23.565-26.49,38.163-61.124,38.974-99.095
	c9.925-1.361,20.207-0.86,29.83,1.682c5.336,1.412,10.81-1.774,12.221-7.114C453.707,350.277,450.521,344.805,445.181,343.395z
	 M335.135,191.848c3.945-14.349,15.946-39.633,29.886-62.498c18.149-29.769,30.606-41.48,36.447-45.097
	c-0.294,7.655-3.939,24.857-15.741,50.709c-12.02,26.325-27.026,49.46-42.052,65.072
	C340.869,197.168,338.023,194.432,335.135,191.848z M344.871,95.786c19.787-32.469,42.758-58.651,61.446-70.036
	c6.041-3.681,14.455-7.506,20.275-4.83c12.159,5.594,17.876,19.693,16.991,41.908c-1.119,28.108-13.255,66.338-32.464,102.261
	c-15.285,28.585-32.705,51-46.398,60.218c-2.538-3.551-5.123-6.98-7.76-10.266c16.343-16.692,32.635-41.201,45.594-68.828
	c10.752-22.92,21.231-53.055,18.396-68.895c-1.579-8.819-6.854-12.072-9.855-13.226c-5.883-2.261-12.394-1.341-19.359,2.732
	c-17.99,10.519-37.972,41.897-48.28,59.666c-8.848,15.25-19.279,35.718-25.104,52.235c-1.998-1.348-4.01-2.621-6.034-3.839
	C315.057,154.204,326.911,125.258,344.871,95.786z M97.43,166.371c-20.158-36.51-32.854-74.904-33.961-102.703
	c-0.832-20.875,4.669-34.184,16.349-39.555c6.285-2.895,15.852,1.93,20.995,5.063c18.919,11.524,42.099,37.575,62.007,69.684
	c18.158,29.287,30.112,58.053,32.811,78.564c-1.491,0.97-2.976,1.967-4.45,3.007c-12.762-35.057-48.971-94.738-74.226-109.506
	c-7.213-4.217-13.903-5.19-19.889-2.891c-2.988,1.148-8.234,4.375-9.792,13.076c-3.522,19.676,13.602,57.436,18.934,68.54
	c13.227,27.544,29.741,52.034,46.205,68.738c-2.248,2.913-4.464,5.916-6.637,9.025c-0.04,0.058-0.079,0.117-0.119,0.175
	C131.58,218.223,113.474,195.43,97.43,166.371z M165.405,203.081c-15.044-15.601-30.152-38.553-42.356-64.584
	c-12.045-25.694-15.879-42.804-16.264-50.41c5.896,3.441,18.545,14.792,37.152,44.058c14.372,22.606,26.695,47.614,30.667,61.768
	C171.489,196.803,168.422,199.863,165.405,203.081z M255.999,492.001c-35.704,0-69.314-13.855-94.639-39.016
	c-1.15-1.143-2.27-2.309-3.374-3.485c7.882-22.617,41.976-110.138,97.608-110.76c0.196-0.002,0.388-0.003,0.582-0.003
	c55.799,0,88.182,89.876,95.591,113.012C327.386,476.574,293.462,492.001,255.999,492.001z M366.744,433.575
	c-13.228-36.558-48.769-114.837-110.554-114.837c-0.27,0-0.548,0.002-0.819,0.005c-61.022,0.682-97.94,76.655-111.914,112.304
	c-12.528-19.139-19.914-41.138-21.442-64.293c3.022,1.344,5.933,2.871,8.664,4.616c1.668,1.065,3.531,1.573,5.373,1.573
	c3.3,0,6.529-1.632,8.437-4.618c2.973-4.654,1.609-10.837-3.045-13.81c-5.894-3.764-12.375-6.807-19.202-9.094
	c0.59-7.103,1.666-14.402,3.2-21.799c8.821,2.778,16.907,6.803,23.75,11.997c1.808,1.373,3.932,2.035,6.038,2.035
	c3.02,0,6.006-1.363,7.972-3.954c3.34-4.399,2.48-10.671-1.919-14.01c-8.913-6.767-19.429-11.962-30.852-15.433
	c6.995-22.795,17.912-45.599,31.737-65.394c6.752-9.666,16.692-22.129,29.357-33.233c0.445-0.326,0.858-0.69,1.241-1.083
	c5.321-4.563,11.109-8.862,17.332-12.615c0.764-0.329,1.477-0.745,2.127-1.244c12.891-7.393,27.564-12.357,43.772-12.357
	c14.658,0,28.061,4.066,40.026,10.308c0.685,0.484,1.434,0.887,2.234,1.188c6.744,3.727,13.011,8.128,18.763,12.865
	c0.414,0.414,0.862,0.793,1.345,1.131c13.671,11.543,24.34,24.847,31.461,35.042c13.826,19.795,24.742,42.601,31.737,65.394
	c-11.423,3.471-21.939,8.666-30.852,15.433c-4.399,3.339-5.259,9.61-1.919,14.01c1.967,2.592,4.952,3.954,7.972,3.954
	c2.107,0,4.23-0.663,6.038-2.035c6.844-5.194,14.93-9.218,23.75-11.995c1.534,7.395,2.61,14.694,3.2,21.796
	c-6.827,2.289-13.309,5.332-19.201,9.095c-4.654,2.973-6.018,9.155-3.045,13.81c1.908,2.987,5.138,4.618,8.437,4.618
	c1.842,0,3.706-0.509,5.373-1.573c2.73-1.744,5.639-3.271,8.657-4.613C388.327,391.435,379.982,414.309,366.744,433.575z"/>
<path d="M474.582,357.994l-0.357-0.287c-4.323-3.438-10.612-2.72-14.05,1.604c-3.438,4.322-2.72,10.612,1.603,14.05l0.13,0.104
	c1.858,1.523,4.102,2.265,6.331,2.265c2.894,0,5.765-1.25,7.741-3.663C479.48,367.795,478.854,361.494,474.582,357.994z"/>
<g>
</g>
<g>
</g>
<g>
</g>
<g>
</g>
<g>
</g>
<g>
</g>
<g>
</g>
<g>
</g>
<g>
</g>
<g>
</g>
<g>
</g>
<g>
</g>
<g>
</g>
<g>
</g>
<g>
</g>
</svg>
